# xmcd CD database file
#
# Track frame offsets:
#	150
#	15247
#	32997
#	44995
#	56637
#	70865
#	84150
#	98297
#	108650
#	120620
#	132715
#	149715
#	165125
#	177692
#	188670
#	200825
#	211152
#	226452
#	240690
#	253840
#	266140
#	276990
#	290207
#
# Disc length: 4105 seconds
#
# Revision: 0
# Processed by: cddbd v1.5.1PL0 Copyright (c) Steve Scherf et al.
# Submitted via: CDex 1.51
#
DISCID=68100717
DTITLE=Ronnie Dove - Now and Then
DYEAR=1998
DGENRE=Country
TTITLE0=Save The Bay
TTITLE1=Maryland Memories
TTITLE2=Have I Told You that I Love You Today
TTITLE3=Lookin' For Some Lovin'
TTITLE4=Please Don't Stop Me (Baby I'm On Fire)
TTITLE5=Please Come To Nashville
TTITLE6=Shout
TTITLE7=You Touch Me Inside
TTITLE8=Talking To My Children's Mama
TTITLE9=Here We Go Again
TTITLE10=She Feels So Right
TTITLE11=They Can't Love Like You And Me
TTITLE12=You Can't Take It With You
TTITLE13=Singin' A Happy Song
TTITLE14=Kiss The Hurt Away
TTITLE15=Let Me Stay Today
TTITLE16=Love Affair
TTITLE17=Picture On Paper
TTITLE18=You Win Again
TTITLE19=Never Gonna' Cry
TTITLE20=Is It Wrong?
TTITLE21=I Thank You For Your Love
TTITLE22=Memories Of Mama
EXTD=YEAR: 1998
EXTT0=
EXTT1=
EXTT2=
EXTT3=
EXTT4=
EXTT5=
EXTT6=
EXTT7=
EXTT8=
EXTT9=
EXTT10=
EXTT11=
EXTT12=
EXTT13=
EXTT14=
EXTT15=
EXTT16=
EXTT17=
EXTT18=
EXTT19=
EXTT20=
EXTT21=
EXTT22=
PLAYORDER=
